<svg width="24" height="24" fill="none" xmlns="http://www.w3.org/2000/svg"><path d="M9.75 3h3.129a1.5 1.5 0 011.06.44l6.622 6.62A1.5 1.5 0 0121 11.122v9.129a2.25 2.25 0 01-2.25 2.25H9a2.25 2.25 0 01-2.25-2.25v-6" stroke="#9C9C9C" stroke-linecap="round" stroke-linejoin="round"/><path d="M13.5 3.375V9a1.5 1.5 0 001.5 1.5h5.625" stroke="#9C9C9C" stroke-linecap="round" stroke-linejoin="round"/><path d="M7.5 3.75v7.125A1.11 1.11 0 016.375 12c-.563 0-1.125-.427-1.125-1.125v-6.75c0-1.434.777-2.625 2.25-2.625 1.473 0 2.25 1.163 2.25 2.596V10.6c0 2.016-1.304 3.65-3.375 3.65C4.305 14.25 3 12.616 3 10.6V6.75" stroke="#9C9C9C" stroke-miterlimit="10" stroke-linecap="round"/></svg>