<svg width="14" height="17" fill="none" xmlns="http://www.w3.org/2000/svg"><path d="M3.111 7.611h1.556v1.667H3.11V7.61zM14 3.444v11.667c0 .917-.7 1.667-1.556 1.667H1.556c-.413 0-.809-.176-1.1-.488A1.73 1.73 0 010 15.11L.008 3.444c0-.916.684-1.666 1.548-1.666h.777V.11H3.89v1.667h6.222V.11h1.556v1.667h.777c.856 0 1.556.75 1.556 1.666zM1.556 5.111h10.888V3.444H1.556v1.667zm10.888 10V6.778H1.556v8.333h10.888zm-3.11-5.833h1.555V7.61H9.333v1.667zm-3.112 0h1.556V7.61H6.222v1.667z" fill="#7688A4"/></svg>