<svg width="280" height="21" viewBox="0 0 280 21" fill="none" xmlns="http://www.w3.org/2000/svg">
<path d="M1.08 20C0.893333 20 0.734667 19.944 0.604 19.832C0.492 19.7013 0.436 19.5427 0.436 19.356V1.072C0.436 0.866665 0.492 0.707999 0.604 0.595999C0.734667 0.465332 0.893333 0.399999 1.08 0.399999H2.368C2.704 0.399999 2.93733 0.530665 3.068 0.791999L12.364 15.072V1.072C12.364 0.866665 12.42 0.707999 12.532 0.595999C12.6627 0.465332 12.8213 0.399999 13.008 0.399999H14.352C14.5573 0.399999 14.716 0.465332 14.828 0.595999C14.9587 0.707999 15.024 0.866665 15.024 1.072V19.328C15.024 19.5147 14.9587 19.6733 14.828 19.804C14.716 19.9347 14.5667 20 14.38 20H13.036C12.756 20 12.532 19.8693 12.364 19.608L3.096 5.468V19.356C3.096 19.5427 3.03067 19.7013 2.9 19.832C2.76933 19.944 2.61067 20 2.424 20H1.08ZM18.5888 20C18.4394 20 18.3088 19.944 18.1968 19.832C18.0848 19.72 18.0288 19.5893 18.0288 19.44C18.0288 19.2907 18.0381 19.188 18.0568 19.132L25.0008 1.016C25.1501 0.605332 25.4488 0.399999 25.8968 0.399999H27.8008C28.2488 0.399999 28.5474 0.605332 28.6968 1.016L35.6128 19.132L35.6688 19.44C35.6688 19.5893 35.6128 19.72 35.5008 19.832C35.3888 19.944 35.2581 20 35.1088 20H33.6808C33.4754 20 33.3168 19.9533 33.2048 19.86C33.0928 19.748 33.0181 19.636 32.9808 19.524L31.4408 15.548H22.2568L20.7168 19.524C20.6794 19.636 20.5954 19.748 20.4648 19.86C20.3528 19.9533 20.2034 20 20.0168 20H18.5888ZM30.6288 13.14L26.8488 3.2L23.0688 13.14H30.6288ZM39.3066 20C39.1199 20 38.9612 19.944 38.8306 19.832C38.7186 19.7013 38.6626 19.5427 38.6626 19.356V1.072C38.6626 0.866665 38.7186 0.707999 38.8306 0.595999C38.9612 0.465332 39.1199 0.399999 39.3066 0.399999H40.7066C41.0052 0.399999 41.2479 0.549332 41.4346 0.848L47.3426 12.16L53.3066 0.848C53.3439 0.735999 53.4186 0.633332 53.5306 0.539999C53.6612 0.446665 53.8199 0.399999 54.0066 0.399999H55.3786C55.5839 0.399999 55.7426 0.465332 55.8546 0.595999C55.9852 0.707999 56.0506 0.866665 56.0506 1.072V19.356C56.0506 19.5427 55.9852 19.7013 55.8546 19.832C55.7239 19.944 55.5652 20 55.3786 20H54.0066C53.8199 20 53.6612 19.944 53.5306 19.832C53.4186 19.7013 53.3626 19.5427 53.3626 19.356V5.58L48.6866 14.708C48.4999 15.1 48.2012 15.296 47.7906 15.296H46.9226C46.5119 15.296 46.2132 15.1 46.0266 14.708L41.3226 5.58V19.356C41.3226 19.5427 41.2572 19.7013 41.1266 19.832C41.0146 19.944 40.8652 20 40.6786 20H39.3066ZM59.577 20C59.4277 20 59.297 19.944 59.185 19.832C59.073 19.72 59.017 19.5893 59.017 19.44C59.017 19.2907 59.0264 19.188 59.045 19.132L65.989 1.016C66.1384 0.605332 66.437 0.399999 66.885 0.399999H68.789C69.237 0.399999 69.5357 0.605332 69.685 1.016L76.601 19.132L76.657 19.44C76.657 19.5893 76.601 19.72 76.489 19.832C76.377 19.944 76.2464 20 76.097 20H74.669C74.4637 20 74.305 19.9533 74.193 19.86C74.081 19.748 74.0064 19.636 73.969 19.524L72.429 15.548H63.245L61.705 19.524C61.6677 19.636 61.5837 19.748 61.453 19.86C61.341 19.9533 61.1917 20 61.005 20H59.577ZM71.617 13.14L67.837 3.2L64.057 13.14H71.617ZM80.2948 20C80.1082 20 79.9495 19.944 79.8188 19.832C79.7068 19.7013 79.6508 19.5427 79.6508 19.356V1.072C79.6508 0.866665 79.7068 0.707999 79.8188 0.595999C79.9495 0.465332 80.1082 0.399999 80.2948 0.399999H81.5828C81.9188 0.399999 82.1522 0.530665 82.2828 0.791999L91.5788 15.072V1.072C91.5788 0.866665 91.6348 0.707999 91.7468 0.595999C91.8775 0.465332 92.0362 0.399999 92.2228 0.399999H93.5668C93.7722 0.399999 93.9308 0.465332 94.0428 0.595999C94.1735 0.707999 94.2388 0.866665 94.2388 1.072V19.328C94.2388 19.5147 94.1735 19.6733 94.0428 19.804C93.9308 19.9347 93.7815 20 93.5948 20H92.2508C91.9708 20 91.7468 19.8693 91.5788 19.608L82.3108 5.468V19.356C82.3108 19.5427 82.2455 19.7013 82.1148 19.832C81.9842 19.944 81.8255 20 81.6388 20H80.2948ZM106.26 20.28C103.814 20.28 101.91 19.6173 100.548 18.292C99.2036 16.948 98.4849 15.1187 98.3916 12.804C98.3729 12.244 98.3636 11.3667 98.3636 10.172C98.3636 8.95867 98.3729 8.08133 98.3916 7.54C98.4849 5.244 99.2129 3.43333 100.576 2.108C101.938 0.782665 103.833 0.119999 106.26 0.119999C107.902 0.119999 109.293 0.418666 110.432 1.016C111.589 1.59467 112.457 2.304 113.036 3.144C113.614 3.984 113.922 4.768 113.96 5.496V5.552C113.96 5.70133 113.904 5.82267 113.792 5.916C113.68 6.00933 113.54 6.056 113.372 6.056H111.72C111.533 6.056 111.393 6.028 111.3 5.972C111.225 5.89733 111.15 5.75733 111.076 5.552C110.796 4.712 110.254 3.99333 109.452 3.396C108.668 2.79867 107.604 2.5 106.26 2.5C104.71 2.5 103.497 2.92 102.62 3.76C101.742 4.6 101.266 5.90667 101.192 7.68C101.173 8.22133 101.164 9.052 101.164 10.172C101.164 11.2733 101.173 12.104 101.192 12.664C101.266 14.456 101.742 15.7813 102.62 16.64C103.497 17.48 104.71 17.9 106.26 17.9C107.828 17.9 109.078 17.4707 110.012 16.612C110.945 15.7533 111.412 14.4653 111.412 12.748V11.572H107.212C107.025 11.572 106.866 11.516 106.736 11.404C106.624 11.2733 106.568 11.1053 106.568 10.9V10.004C106.568 9.81733 106.624 9.65867 106.736 9.528C106.866 9.39733 107.025 9.332 107.212 9.332H113.54C113.726 9.332 113.876 9.39733 113.988 9.528C114.118 9.64 114.184 9.79867 114.184 10.004V12.692C114.184 14.2227 113.866 15.5573 113.232 16.696C112.597 17.8347 111.682 18.7213 110.488 19.356C109.293 19.972 107.884 20.28 106.26 20.28ZM116.479 20C116.33 20 116.199 19.944 116.087 19.832C115.975 19.72 115.919 19.5893 115.919 19.44C115.919 19.2907 115.929 19.188 115.947 19.132L122.891 1.016C123.041 0.605332 123.339 0.399999 123.787 0.399999H125.691C126.139 0.399999 126.438 0.605332 126.587 1.016L133.503 19.132L133.559 19.44C133.559 19.5893 133.503 19.72 133.391 19.832C133.279 19.944 133.149 20 132.999 20H131.571C131.366 20 131.207 19.9533 131.095 19.86C130.983 19.748 130.909 19.636 130.871 19.524L129.331 15.548H120.147L118.607 19.524C118.57 19.636 118.486 19.748 118.355 19.86C118.243 19.9533 118.094 20 117.907 20H116.479ZM128.519 13.14L124.739 3.2L120.959 13.14H128.519ZM137.197 20C137.011 20 136.852 19.944 136.721 19.832C136.609 19.7013 136.553 19.5427 136.553 19.356V1.072C136.553 0.866665 136.609 0.707999 136.721 0.595999C136.852 0.465332 137.011 0.399999 137.197 0.399999H138.485C138.821 0.399999 139.055 0.530665 139.185 0.791999L148.481 15.072V1.072C148.481 0.866665 148.537 0.707999 148.649 0.595999C148.78 0.465332 148.939 0.399999 149.125 0.399999H150.469C150.675 0.399999 150.833 0.465332 150.945 0.595999C151.076 0.707999 151.141 0.866665 151.141 1.072V19.328C151.141 19.5147 151.076 19.6733 150.945 19.804C150.833 19.9347 150.684 20 150.497 20H149.153C148.873 20 148.649 19.8693 148.481 19.608L139.213 5.468V19.356C139.213 19.5427 139.148 19.7013 139.017 19.832C138.887 19.944 138.728 20 138.541 20H137.197ZM156.666 20C156.479 20 156.321 19.944 156.19 19.832C156.078 19.7013 156.022 19.5427 156.022 19.356V1.044C156.022 0.857332 156.078 0.707999 156.19 0.595999C156.321 0.465332 156.479 0.399999 156.666 0.399999H158.15C158.337 0.399999 158.486 0.465332 158.598 0.595999C158.729 0.707999 158.794 0.857332 158.794 1.044V17.564H168.09C168.295 17.564 168.454 17.6293 168.566 17.76C168.697 17.872 168.762 18.0307 168.762 18.236V19.356C168.762 19.5427 168.697 19.7013 168.566 19.832C168.435 19.944 168.277 20 168.09 20H156.666ZM172.443 20C172.257 20 172.098 19.944 171.967 19.832C171.855 19.7013 171.799 19.5427 171.799 19.356V1.044C171.799 0.857332 171.855 0.707999 171.967 0.595999C172.098 0.465332 172.257 0.399999 172.443 0.399999H173.927C174.114 0.399999 174.263 0.465332 174.375 0.595999C174.506 0.707999 174.571 0.857332 174.571 1.044V19.356C174.571 19.5427 174.506 19.7013 174.375 19.832C174.263 19.944 174.114 20 173.927 20H172.443ZM180.1 20C179.913 20 179.754 19.944 179.624 19.832C179.512 19.7013 179.456 19.5427 179.456 19.356V1.072C179.456 0.866665 179.512 0.707999 179.624 0.595999C179.754 0.465332 179.913 0.399999 180.1 0.399999H181.5C181.705 0.399999 181.864 0.465332 181.976 0.595999C182.106 0.707999 182.172 0.866665 182.172 1.072V8.016L189.648 0.848C189.946 0.549332 190.31 0.399999 190.74 0.399999H192.252C192.401 0.399999 192.532 0.455999 192.644 0.568C192.756 0.68 192.812 0.810666 192.812 0.96C192.812 1.10933 192.774 1.23067 192.7 1.324L184.048 9.78L193.26 19.048C193.353 19.16 193.4 19.2907 193.4 19.44C193.4 19.5893 193.344 19.72 193.232 19.832C193.12 19.944 192.989 20 192.84 20H191.272C190.861 20 190.497 19.8413 190.18 19.524L182.172 11.656V19.356C182.172 19.5427 182.106 19.7013 181.976 19.832C181.845 19.944 181.686 20 181.5 20H180.1ZM196.916 20C196.729 20 196.571 19.944 196.44 19.832C196.328 19.7013 196.272 19.5427 196.272 19.356V1.044C196.272 0.857332 196.328 0.707999 196.44 0.595999C196.571 0.465332 196.729 0.399999 196.916 0.399999H198.4C198.587 0.399999 198.736 0.465332 198.848 0.595999C198.979 0.707999 199.044 0.857332 199.044 1.044V17.564H208.34C208.545 17.564 208.704 17.6293 208.816 17.76C208.947 17.872 209.012 18.0307 209.012 18.236V19.356C209.012 19.5427 208.947 19.7013 208.816 19.832C208.685 19.944 208.527 20 208.34 20H196.916ZM210.733 20C210.584 20 210.453 19.944 210.341 19.832C210.229 19.72 210.173 19.5893 210.173 19.44C210.173 19.2907 210.183 19.188 210.201 19.132L217.145 1.016C217.295 0.605332 217.593 0.399999 218.041 0.399999H219.945C220.393 0.399999 220.692 0.605332 220.841 1.016L227.757 19.132L227.813 19.44C227.813 19.5893 227.757 19.72 227.645 19.832C227.533 19.944 227.403 20 227.253 20H225.825C225.62 20 225.461 19.9533 225.349 19.86C225.237 19.748 225.163 19.636 225.125 19.524L223.585 15.548H214.401L212.861 19.524C212.824 19.636 212.74 19.748 212.609 19.86C212.497 19.9533 212.348 20 212.161 20H210.733ZM222.773 13.14L218.993 3.2L215.213 13.14H222.773ZM231.451 20C231.264 20 231.106 19.944 230.975 19.832C230.863 19.7013 230.807 19.5427 230.807 19.356V1.072C230.807 0.866665 230.863 0.707999 230.975 0.595999C231.106 0.465332 231.264 0.399999 231.451 0.399999H238.283C240.43 0.399999 242.11 0.903999 243.323 1.912C244.536 2.92 245.143 4.376 245.143 6.28C245.143 7.69867 244.788 8.86533 244.079 9.78C243.388 10.6947 242.408 11.3293 241.139 11.684L245.451 19.132C245.507 19.244 245.535 19.3467 245.535 19.44C245.535 19.5893 245.47 19.72 245.339 19.832C245.227 19.944 245.096 20 244.947 20H243.603C243.323 20 243.099 19.9347 242.931 19.804C242.782 19.6733 242.642 19.4867 242.511 19.244L238.451 12.132H233.551V19.356C233.551 19.5427 233.486 19.7013 233.355 19.832C233.224 19.944 233.066 20 232.879 20H231.451ZM238.171 9.752C240.952 9.752 242.343 8.58533 242.343 6.252C242.343 3.91867 240.952 2.752 238.171 2.752H233.551V9.752H238.171ZM248.735 20C248.548 20 248.389 19.944 248.259 19.832C248.147 19.7013 248.091 19.5427 248.091 19.356V18.46C248.091 18.0307 248.324 17.62 248.791 17.228L254.727 11.292C256.164 10.0973 257.153 9.12667 257.695 8.38C258.236 7.61467 258.507 6.812 258.507 5.972C258.507 4.88933 258.199 4.04 257.583 3.424C256.985 2.808 256.108 2.5 254.951 2.5C253.868 2.5 253 2.82667 252.347 3.48C251.693 4.11467 251.292 4.964 251.143 6.028C251.105 6.252 251.012 6.42 250.863 6.532C250.732 6.62533 250.583 6.672 250.415 6.672H248.959C248.791 6.672 248.651 6.62533 248.539 6.532C248.427 6.42 248.371 6.28933 248.371 6.14C248.408 5.132 248.679 4.17067 249.183 3.256C249.687 2.32267 250.424 1.56667 251.395 0.987999C252.384 0.390666 253.569 0.0919993 254.951 0.0919993C257.06 0.0919993 258.647 0.642666 259.711 1.744C260.793 2.82667 261.335 4.208 261.335 5.888C261.335 7.064 261.036 8.128 260.439 9.08C259.86 10.0133 258.955 11.0213 257.723 12.104L252.347 17.564H261.083C261.288 17.564 261.447 17.6293 261.559 17.76C261.689 17.872 261.755 18.0213 261.755 18.208V19.356C261.755 19.5427 261.689 19.7013 261.559 19.832C261.428 19.944 261.269 20 261.083 20H248.735ZM274.107 20C273.92 20 273.762 19.944 273.631 19.832C273.519 19.7013 273.463 19.5427 273.463 19.356V15.324H264.391C264.204 15.324 264.046 15.268 263.915 15.156C263.803 15.0253 263.747 14.8667 263.747 14.68V13.56C263.747 13.28 263.85 13 264.055 12.72L272.455 0.875999C272.548 0.726666 272.688 0.614665 272.875 0.539999C273.062 0.446665 273.267 0.399999 273.491 0.399999H275.507C275.694 0.399999 275.843 0.465332 275.955 0.595999C276.086 0.707999 276.151 0.857332 276.151 1.044V12.888H278.671C278.858 12.888 279.016 12.9533 279.147 13.084C279.278 13.196 279.343 13.3453 279.343 13.532V14.68C279.343 14.8667 279.278 15.0253 279.147 15.156C279.035 15.268 278.886 15.324 278.699 15.324H276.151V19.356C276.151 19.5427 276.086 19.7013 275.955 19.832C275.843 19.944 275.694 20 275.507 20H274.107ZM273.491 12.944V3.34L266.743 12.944H273.491Z" fill="#295091"/>
</svg>
